<svg width="16" height="16" id="Layer_2" xmlns="http://www.w3.org/2000/svg" viewBox="0 0 96.68 109.05"><defs><style>.cls-1{fill:#fff;}</style></defs><g id="Layer_2-2"><path class="cls-1" d="m96.62,43.68h-28.64c1.72-12.59,7.57-19.48,13.09-23.23v14.22h15.37V0l-8.86,1.37c-.95.15-9.54,1.64-18.14,8.6-7.91,6.4-17.33,18.77-17.33,41.39v7.69h44.1l.15-1.64c.21-2.3.32-4.66.32-7.03l-.07-6.7h0Z"/><path class="cls-1" d="m80.52,66.99l-.33,1.39c-1.35,5.65-4.66,13.19-12.71,18.51v-19.81h-15.37v41.97l9.87-2.93c18.19-5.4,29.75-18.18,33.43-36.97l.42-2.16h-15.32.01Z"/><path class="cls-1" d="m.07,43.68h28.64c-1.72-12.59-7.57-19.48-13.09-23.23v14.22H.25V0l8.86,1.37c.95.15,9.54,1.64,18.14,8.6,7.91,6.4,17.33,18.77,17.33,41.39v7.69H.48l-.15-1.64c-.22-2.3-.33-4.66-.33-7.03l.07-6.7Z"/><path class="cls-1" d="m16.17,66.99l.33,1.39c1.35,5.65,4.66,13.19,12.71,18.51v-19.81h15.37v41.97l-9.87-2.93c-18.19-5.4-29.75-18.19-33.44-36.98l-.42-2.16h15.32Z"/></g></svg>